<svg width="102" height="71" viewBox="0 0 102 71" fill="none" xmlns="http://www.w3.org/2000/svg">
<rect x="0.0294189" y="0.617554" width="101.912" height="69.8824" rx="5.82353" fill="#FFF4EE"/>
<path fill-rule="evenodd" clip-rule="evenodd" d="M64.6014 55.3761C75.5749 55.3761 84.4706 46.3771 84.4706 35.2763C84.4706 24.1754 75.5749 15.1764 64.6014 15.1764C59.6835 15.1764 55.1829 16.9839 51.7133 19.978C48.2437 16.9839 43.7431 15.1764 38.8251 15.1764C27.8517 15.1764 18.9559 24.1754 18.9559 35.2763C18.9559 46.3771 27.8517 55.3761 38.8251 55.3761C43.7431 55.3761 48.2437 53.5687 51.7133 50.5745C55.1829 53.5686 59.6835 55.3761 64.6014 55.3761Z" fill="#ED0006"/>
<path fill-rule="evenodd" clip-rule="evenodd" d="M51.7133 50.5745C55.9854 46.8878 58.6943 41.4021 58.6943 35.2763C58.6943 29.1505 55.9854 23.6647 51.7133 19.978C55.1828 16.9839 59.6835 15.1764 64.6014 15.1764C75.5749 15.1764 84.4706 24.1754 84.4706 35.2763C84.4706 46.3771 75.5749 55.3761 64.6014 55.3761C59.6835 55.3761 55.1828 53.5686 51.7133 50.5745Z" fill="#F9A000"/>
<path fill-rule="evenodd" clip-rule="evenodd" d="M51.7134 50.5744C55.9855 46.8877 58.6943 41.402 58.6943 35.2762C58.6943 29.1504 55.9855 23.6647 51.7134 19.978C47.4413 23.6647 44.7324 29.1504 44.7324 35.2762C44.7324 41.402 47.4413 46.8877 51.7134 50.5744Z" fill="#FF5E00"/>
</svg>
