<svg width="102" height="71" viewBox="0 0 102 71" fill="none" xmlns="http://www.w3.org/2000/svg">
<rect y="0.617554" width="101.912" height="69.8824" rx="5.82353" fill="#EBF3FA"/>
<path d="M43.6011 47.4469H37.8387L41.4429 25.1614H47.2049L43.6011 47.4469Z" fill="#00579F"/>
<path d="M64.4878 25.7063C63.3512 25.2554 61.5485 24.7576 59.3194 24.7576C53.629 24.7576 49.6218 27.792 49.5972 32.1304C49.5499 35.3312 52.4662 37.1091 54.6474 38.1763C56.8767 39.2669 57.6346 39.9787 57.6346 40.9508C57.6119 42.4438 55.8331 43.132 54.1741 43.132C51.8735 43.132 50.6408 42.7772 48.7675 41.9465L48.0087 41.5905L47.2024 46.5931C48.5539 47.2088 51.0438 47.7552 53.629 47.7791C59.6752 47.7791 63.6115 44.7916 63.6581 40.1684C63.6811 37.6315 62.1412 35.6876 58.8213 34.0992C56.8058 33.0795 55.5716 32.3919 55.5716 31.3486C55.5952 30.4002 56.6155 29.4287 58.8906 29.4287C60.7639 29.3811 62.1403 29.8314 63.1829 30.282L63.7041 30.5186L64.4878 25.7063Z" fill="#00579F"/>
<path d="M72.1495 39.5519C72.6241 38.2716 74.4501 33.3166 74.4501 33.3166C74.4261 33.3642 74.9237 32.0127 75.2082 31.183L75.6109 33.1033C75.6109 33.1033 76.7022 38.4377 76.9391 39.5519C76.0385 39.5519 73.2877 39.5519 72.1495 39.5519ZM79.2624 25.1614H74.8052C73.4307 25.1614 72.3865 25.5641 71.7934 27.0104L63.2343 47.4465H69.2805C69.2805 47.4465 70.2759 44.696 70.4899 44.1036C71.1532 44.1036 77.0349 44.1036 77.8882 44.1036C78.0536 44.886 78.5758 47.4465 78.5758 47.4465H83.9111L79.2624 25.1614Z" fill="#00579F"/>
<path d="M33.0251 25.1614L27.3819 40.3579L26.7653 37.2759C25.7219 33.7196 22.4499 29.8558 18.7985 27.9346L23.9674 47.4232H30.0609L39.1183 25.1614H33.0251Z" fill="#00579F"/>
<path d="M22.1417 25.1614H12.8707L12.7759 25.6117C20.0079 27.461 24.7974 31.9188 26.7653 37.2768L24.7499 27.0347C24.4181 25.6113 23.3984 25.2083 22.1417 25.1614Z" fill="#FAA61A"/>
</svg>
